<svg width="24" height="24" fill="none" xmlns="http://www.w3.org/2000/svg"><path d="M5.25.5a.25.25 0 0 1 .25.25V2h13V.75a.25.25 0 1 1 .5 0V2h2a2.5 2.5 0 0 1 2.5 2.5V21a2.5 2.5 0 0 1-2.5 2.5H3A2.5 2.5 0 0 1 .5 21V4.5A2.5 2.5 0 0 1 3 2h2V.75A.25.25 0 0 1 5.25.5ZM3 2.5a2 2 0 0 0-2 2V21a2 2 0 0 0 2 2h18a2 2 0 0 0 2-2V4.5a2 2 0 0 0-2-2H3Z" stroke="#84D52C"/><path d="M5.25.5a.25.25 0 0 1 .25.25V2h13V.75a.25.25 0 1 1 .5 0V2h2a2.5 2.5 0 0 1 2.5 2.5V21a2.5 2.5 0 0 1-2.5 2.5H3A2.5 2.5 0 0 1 .5 21V4.5A2.5 2.5 0 0 1 3 2h2V.75A.25.25 0 0 1 5.25.5ZM3 2.5a2 2 0 0 0-2 2V21a2 2 0 0 0 2 2h18a2 2 0 0 0 2-2V4.5a2 2 0 0 0-2-2H3Z" stroke="url(#a)" stroke-opacity=".2"/><path d="M3.75 6a.75.75 0 0 1 .75-.75h15a.75.75 0 0 1 .75.75v1.5a.75.75 0 0 1-.75.75h-15a.75.75 0 0 1-.75-.75V6Zm12.75 5.25a.75.75 0 0 1 .75-.75h1.5a.75.75 0 0 1 .75.75v1.5a.75.75 0 0 1-.75.75h-1.5a.75.75 0 0 1-.75-.75v-1.5Zm-4.5 0a.75.75 0 0 1 .75-.75h1.5a.75.75 0 0 1 .75.75v1.5a.75.75 0 0 1-.75.75h-1.5a.75.75 0 0 1-.75-.75v-1.5Zm-7.5 4.5a.75.75 0 0 1 .75-.75h1.5a.75.75 0 0 1 .75.75v1.5a.75.75 0 0 1-.75.75h-1.5a.75.75 0 0 1-.75-.75v-1.5Zm4.5 0a.75.75 0 0 1 .75-.75h1.5a.75.75 0 0 1 .75.75v1.5a.75.75 0 0 1-.75.75h-1.5a.75.75 0 0 1-.75-.75v-1.5Z" fill="#84D52C"/><path d="M3.75 6a.75.75 0 0 1 .75-.75h15a.75.75 0 0 1 .75.75v1.5a.75.75 0 0 1-.75.75h-15a.75.75 0 0 1-.75-.75V6Zm12.75 5.25a.75.75 0 0 1 .75-.75h1.5a.75.75 0 0 1 .75.75v1.5a.75.75 0 0 1-.75.75h-1.5a.75.75 0 0 1-.75-.75v-1.5Zm-4.5 0a.75.75 0 0 1 .75-.75h1.5a.75.75 0 0 1 .75.75v1.5a.75.75 0 0 1-.75.75h-1.5a.75.75 0 0 1-.75-.75v-1.5Zm-7.5 4.5a.75.75 0 0 1 .75-.75h1.5a.75.75 0 0 1 .75.75v1.5a.75.75 0 0 1-.75.75h-1.5a.75.75 0 0 1-.75-.75v-1.5Zm4.5 0a.75.75 0 0 1 .75-.75h1.5a.75.75 0 0 1 .75.75v1.5a.75.75 0 0 1-.75.75h-1.5a.75.75 0 0 1-.75-.75v-1.5Z" fill="url(#b)" fill-opacity=".2"/><defs><linearGradient id="a" x1="24" y1="0" x2=".127" y2="1.437" gradientUnits="userSpaceOnUse"><stop stop-color="#6BAB2B"/><stop offset="1" stop-color="#84D52C" stop-opacity="0"/></linearGradient><linearGradient id="b" x1="20.25" y1="5.25" x2="3.877" y2="6.525" gradientUnits="userSpaceOnUse"><stop stop-color="#6BAB2B"/><stop offset="1" stop-color="#84D52C" stop-opacity="0"/></linearGradient></defs></svg>